<svg width="32" height="32" viewBox="0 0 32 32" fill="none" xmlns="http://www.w3.org/2000/svg">
<circle cx="16" cy="16" r="16" fill="#002554"/>
<path fill-rule="evenodd" clip-rule="evenodd" d="M16.0102 9.90479C16.4259 9.90521 16.7625 10.1696 16.7619 10.4954L16.7435 21.5062C16.7429 21.8319 16.4055 22.0957 15.9898 22.0953C15.5741 22.0948 15.2376 21.8304 15.2381 21.5046L15.2565 10.4939C15.2571 10.1681 15.5945 9.90436 16.0102 9.90479Z" fill="white"/>
<path fill-rule="evenodd" clip-rule="evenodd" d="M9.90475 15.9999C9.90475 15.5792 10.1688 15.238 10.4946 15.238H21.5054C21.8311 15.238 22.0952 15.5792 22.0952 15.9999C22.0952 16.4207 21.8311 16.7618 21.5054 16.7618H10.4946C10.1688 16.7618 9.90475 16.4207 9.90475 15.9999Z" fill="white"/>
</svg>
