<svg width="12" height="12" viewBox="0 0 12 12" fill="none" xmlns="http://www.w3.org/2000/svg">
<path d="M6.00009 9.51332L8.76675 11.1867C8.87882 11.254 9.00822 11.2869 9.13885 11.2813C9.26949 11.2757 9.39558 11.2318 9.50145 11.155C9.60731 11.0783 9.68828 10.9721 9.73427 10.8497C9.78025 10.7273 9.78923 10.5941 9.76009 10.4667L9.02676 7.33332L11.4734 5.21332C11.572 5.12738 11.6431 5.01434 11.678 4.88827C11.7128 4.7622 11.7097 4.62868 11.6692 4.50432C11.6287 4.37996 11.5525 4.27027 11.4502 4.18889C11.3478 4.10751 11.2237 4.05805 11.0934 4.04665L7.87342 3.77332L6.61342 0.786653C6.56219 0.666394 6.47674 0.563848 6.36769 0.491771C6.25864 0.419694 6.13081 0.381266 6.00009 0.381266C5.86937 0.381266 5.74154 0.419694 5.63249 0.491771C5.52344 0.563848 5.43799 0.666394 5.38675 0.786653L4.12675 3.75332L0.906755 3.99999C0.776464 4.01138 0.652402 4.06084 0.550015 4.14222C0.447628 4.2236 0.371439 4.33329 0.330934 4.45765C0.290429 4.58201 0.287397 4.71554 0.322216 4.8416C0.357035 4.96767 0.428167 5.08071 0.526755 5.16665L2.97342 7.33332L2.24009 10.48C2.21094 10.6074 2.21992 10.7407 2.26591 10.8631C2.3119 10.9855 2.39286 11.0916 2.49873 11.1684C2.6046 11.2451 2.73069 11.289 2.86132 11.2946C2.99195 11.3003 3.12135 11.2673 3.23342 11.2L6.00009 9.51332Z" fill="#DFE4E1"/>
</svg>
